<svg width="65" height="64" viewBox="0 0 65 64" fill="none" xmlns="http://www.w3.org/2000/svg">
<path d="M1.77655 19.9763C2.60458 19.9763 3.0531 19.4933 3.0531 18.6652V9.38437C3.0531 4.89919 5.39919 2.5531 9.88437 2.5531H19.1997C20.0278 2.5531 20.5108 2.10458 20.5108 1.27655C20.5108 0.448518 20.0278 0 19.1997 0H9.81536C3.70863 0 0.5 3.17412 0.5 9.24636V18.6652C0.5 19.4933 0.948518 19.9763 1.77655 19.9763ZM63.2234 19.9763C64.0515 19.9763 64.5 19.4933 64.5 18.6652V9.24636C64.5 3.24313 61.3259 0 55.2191 0H45.8003C44.9722 0 44.4892 0.448518 44.4892 1.27655C44.4892 2.10458 44.9722 2.5531 45.8003 2.5531H55.1156C59.4628 2.5531 61.9469 4.89919 61.9469 9.38437V18.6652C61.9469 19.4933 62.3954 19.9763 63.2234 19.9763ZM29.6881 36.6404H29.9987C32.7933 36.6404 34.2078 35.2604 34.2078 32.4313V21.8394C34.2078 21.0458 33.8283 20.6663 33.0348 20.6663C32.2757 20.6663 31.8617 21.0458 31.8617 21.8394V32.7418C31.8617 33.6733 31.1027 34.2598 30.3437 34.2598H29.1706C28.5151 34.2598 28.0321 34.7429 28.0321 35.3984C28.0321 36.2264 28.5496 36.6404 29.6881 36.6404ZM20.0968 28.7051C21.1318 28.7051 21.7873 28.0496 21.7873 27.0146V22.4259C21.7873 21.3563 21.1318 20.7008 20.0968 20.7008C19.0962 20.7008 18.4407 21.3908 18.4407 22.4259V27.0146C18.4407 28.0496 19.0962 28.7051 20.0968 28.7051ZM44.5927 28.7051C45.5933 28.7051 46.2488 28.0496 46.2488 27.0146V22.4259C46.2488 21.3908 45.5933 20.7008 44.5927 20.7008C43.5577 20.7008 42.8677 21.3563 42.8677 22.4259V27.0146C42.8677 28.0496 43.5577 28.7051 44.5927 28.7051ZM32.2067 47.1978C36.0019 47.1978 39.797 45.6108 42.5916 42.8162C42.7987 42.6437 43.0057 42.3332 43.0057 41.8846C43.0057 41.1946 42.4881 40.7461 41.8671 40.7461C41.4876 40.7461 41.1771 40.8496 40.7286 41.3326C38.6585 43.4027 35.4499 44.8863 32.2067 44.8863C28.9636 44.8863 25.7895 43.4027 23.6849 41.3326C23.2709 40.8841 22.9604 40.7461 22.5464 40.7461C21.9253 40.7461 21.4078 41.1946 21.4078 41.8846C21.4078 42.2987 21.6148 42.6092 21.8218 42.8162C24.5474 45.6453 28.4116 47.1978 32.2067 47.1978ZM9.81536 64H19.1997C20.0278 64 20.5108 63.5515 20.5108 62.7234C20.5108 61.8954 20.0278 61.4469 19.1997 61.4469H9.88437C5.39919 61.4469 3.0531 59.1008 3.0531 54.5811V45.3348C3.0531 44.5067 2.60458 43.9892 1.77655 43.9892C0.948518 43.9892 0.5 44.5067 0.5 45.3348V54.7191C0.5 60.8259 3.70863 64 9.81536 64ZM45.8003 64H55.2191C61.3259 64 64.5 60.7224 64.5 54.7191V45.3348C64.5 44.5067 64.0515 43.9892 63.2234 43.9892C62.3954 43.9892 61.9469 44.5067 61.9469 45.3348V54.5811C61.9469 59.1008 59.4628 61.4469 55.1156 61.4469H45.8003C44.9722 61.4469 44.4892 61.8954 44.4892 62.7234C44.4892 63.5515 44.9722 64 45.8003 64Z" fill="#3C3C43" fill-opacity="0.6"/>
</svg>
