<svg width="26" height="26" viewBox="0 0 26 26" fill="none" xmlns="http://www.w3.org/2000/svg">
<path d="M1.47871 8.74111C1.68261 8.74111 1.8748 8.68051 2.01471 8.535C2.15314 8.39103 2.20741 8.19816 2.20741 7.99946V4.51914C2.20741 3.71956 2.4161 3.15255 2.78432 2.78432C3.15255 2.4161 3.71956 2.20741 4.51914 2.20741H8.0124C8.21109 2.20741 8.40397 2.15314 8.54794 2.01471C8.69345 1.8748 8.75404 1.68261 8.75404 1.47871C8.75404 1.2748 8.69345 1.08261 8.54794 0.942703C8.40397 0.804269 8.21109 0.75 8.0124 0.75H4.49326C3.30727 0.75 2.36087 1.0586 1.71183 1.70228C1.06243 2.3463 0.75 3.28678 0.75 4.46739V7.99946C0.75 8.19816 0.804269 8.39103 0.942703 8.535C1.08261 8.68051 1.2748 8.74111 1.47871 8.74111ZM24.5213 8.74111C24.7252 8.74111 24.9174 8.68051 25.0573 8.535C25.1957 8.39103 25.25 8.19816 25.25 7.99946V4.46739C25.25 3.29972 24.9408 2.35996 24.2956 1.71296C23.6503 1.06582 22.7071 0.75 21.5197 0.75H17.9876C17.7889 0.75 17.596 0.804269 17.4521 0.942702C17.3066 1.08261 17.246 1.2748 17.246 1.47871C17.246 1.68261 17.3066 1.8748 17.4521 2.01471C17.596 2.15314 17.7889 2.20741 17.9876 2.20741H21.4809C22.2527 2.20741 22.8215 2.41516 23.1976 2.78564C23.573 3.15548 23.7926 3.72332 23.7926 4.51914V7.99946C23.7926 8.19816 23.8469 8.39103 23.9853 8.535C24.1252 8.68051 24.3174 8.74111 24.5213 8.74111ZM11.9456 14.9902H12.062C12.6237 14.9902 13.0932 14.8514 13.4204 14.5261C13.748 14.2006 13.8904 13.7307 13.8904 13.1617V9.18976C13.8904 9.00524 13.8464 8.81902 13.7089 8.68144C13.5713 8.54387 13.3851 8.49987 13.2005 8.49987C13.0197 8.49987 12.8363 8.54519 12.699 8.67951C12.5607 8.81481 12.5106 8.99968 12.5106 9.18976V13.2782C12.5106 13.4712 12.3568 13.5974 12.1914 13.5974H11.7515C11.3676 13.5974 11.0745 13.8905 11.0745 14.2744C11.0745 14.4856 11.1438 14.6857 11.3234 14.8226C11.4891 14.9488 11.7098 14.9902 11.9456 14.9902ZM8.34879 12.0144C8.59642 12.0144 8.82294 11.9349 8.9881 11.7698C9.15325 11.6046 9.23275 11.3781 9.23275 11.1305V9.4097C9.23275 9.15775 9.15458 8.92799 8.98938 8.76037C8.82385 8.5924 8.5965 8.5128 8.34879 8.5128C8.1016 8.5128 7.87813 8.59946 7.71697 8.76784C7.55684 8.93514 7.47776 9.16252 7.47776 9.4097V11.1305C7.47776 11.378 7.55716 11.6037 7.71949 11.7685C7.88211 11.9335 8.10538 12.0144 8.34879 12.0144ZM17.5348 12.0144C17.7782 12.0144 18.0014 11.9335 18.1641 11.7685C18.3264 11.6037 18.4058 11.378 18.4058 11.1305V9.4097C18.4058 9.16252 18.3267 8.93514 18.1666 8.76784C18.0054 8.59946 17.782 8.5128 17.5348 8.5128C17.2874 8.5128 17.0584 8.59206 16.8903 8.7578C16.7216 8.92411 16.6379 9.15412 16.6379 9.4097V11.1305C16.6379 11.3818 16.723 11.6085 16.8916 11.7723C17.0593 11.9353 17.2875 12.0144 17.5348 12.0144ZM12.89 18.9492C14.3783 18.9492 15.8613 18.3289 16.954 17.2399C17.0775 17.1328 17.1896 16.9519 17.1896 16.7067C17.1896 16.3 16.8735 16.0298 16.5127 16.0298C16.4159 16.0298 16.312 16.0434 16.2014 16.0961C16.0962 16.1462 16.0012 16.2239 15.9058 16.326C15.173 17.0572 14.0337 17.5823 12.89 17.5823C11.7479 17.5823 10.621 17.0584 9.87373 16.3255C9.78618 16.2313 9.69589 16.1547 9.59267 16.1031C9.48352 16.0485 9.37583 16.0298 9.26739 16.0298C8.90656 16.0298 8.59043 16.3 8.59043 16.7067C8.59043 16.9503 8.71265 17.126 8.81714 17.2311C9.88812 18.3418 11.4023 18.9492 12.89 18.9492ZM4.49326 25.25H8.0124C8.21109 25.25 8.40397 25.1957 8.54794 25.0573C8.69345 24.9174 8.75404 24.7252 8.75404 24.5213C8.75404 24.3174 8.69345 24.1252 8.54794 23.9853C8.40397 23.8469 8.21109 23.7926 8.0124 23.7926H4.51914C3.71957 23.7926 3.15279 23.5839 2.78466 23.2144C2.41636 22.8447 2.20741 22.2745 2.20741 21.4679V18.0005C2.20741 17.802 2.15334 17.6082 2.01794 17.462C1.87988 17.3129 1.68759 17.246 1.47871 17.246C1.26982 17.246 1.07753 17.3129 0.939471 17.462C0.804073 17.6082 0.75 17.802 0.75 18.0005V21.5197C0.75 22.7064 1.06224 23.6501 1.71158 24.2959C2.36069 24.9414 3.30727 25.25 4.49326 25.25ZM17.9876 25.25H21.5197C22.7078 25.25 23.651 24.9306 24.2961 24.2801C24.9409 23.63 25.25 22.6873 25.25 21.5197V18.0005C25.25 17.802 25.1959 17.6082 25.0605 17.462C24.9225 17.3129 24.7302 17.246 24.5213 17.246C24.3124 17.246 24.1201 17.3129 23.9821 17.462C23.8467 17.6082 23.7926 17.802 23.7926 18.0005V21.4679C23.7926 22.2707 23.5727 22.8418 23.1973 23.2131C22.8213 23.5849 22.2527 23.7926 21.4809 23.7926H17.9876C17.7889 23.7926 17.596 23.8469 17.4521 23.9853C17.3066 24.1252 17.246 24.3174 17.246 24.5213C17.246 24.7252 17.3066 24.9174 17.4521 25.0573C17.596 25.1957 17.7889 25.25 17.9876 25.25Z" fill="black" stroke="black" stroke-width="0.5"/>
</svg>
