<svg width="24" height="24" viewBox="0 0 24 24" fill="none" xmlns="http://www.w3.org/2000/svg">
<path d="M4.125 1.5C3.53166 1.5 2.95164 1.67595 2.45829 2.00559C1.96494 2.33524 1.58043 2.80377 1.35336 3.35195C1.1263 3.90013 1.06689 4.50333 1.18265 5.08527C1.2984 5.66721 1.58412 6.20176 2.00368 6.62132C2.42324 7.04088 2.95779 7.3266 3.53973 7.44236C4.12167 7.55811 4.72487 7.4987 5.27305 7.27164C5.82123 7.04458 6.28977 6.66006 6.61941 6.16671C6.94905 5.67336 7.125 5.09334 7.125 4.5C7.12411 3.70462 6.80775 2.94208 6.24533 2.37967C5.68292 1.81725 4.92038 1.50089 4.125 1.5ZM4.125 6C3.82833 6 3.53832 5.91203 3.29165 5.7472C3.04497 5.58238 2.85271 5.34811 2.73918 5.07403C2.62565 4.79994 2.59595 4.49834 2.65382 4.20736C2.7117 3.91639 2.85456 3.64912 3.06434 3.43934C3.27412 3.22956 3.54139 3.0867 3.83237 3.02882C4.12334 2.97094 4.42494 3.00065 4.69903 3.11418C4.97312 3.22771 5.20738 3.41997 5.37221 3.66664C5.53703 3.91332 5.625 4.20333 5.625 4.5C5.62455 4.89769 5.46638 5.27896 5.18517 5.56017C4.90396 5.84137 4.52269 5.99955 4.125 6Z" fill="black"/>
<path d="M12 1.5C11.4067 1.5 10.8266 1.67595 10.3333 2.00559C9.83994 2.33524 9.45543 2.80377 9.22836 3.35195C9.0013 3.90013 8.94189 4.50333 9.05765 5.08527C9.1734 5.66721 9.45912 6.20176 9.87868 6.62132C10.2982 7.04088 10.8328 7.3266 11.4147 7.44236C11.9967 7.55811 12.5999 7.4987 13.1481 7.27164C13.6962 7.04458 14.1648 6.66006 14.4944 6.16671C14.8241 5.67336 15 5.09334 15 4.5C14.9991 3.70462 14.6828 2.94208 14.1203 2.37967C13.5579 1.81725 12.7954 1.50089 12 1.5ZM12 6C11.7033 6 11.4133 5.91203 11.1666 5.7472C10.92 5.58238 10.7277 5.34811 10.6142 5.07403C10.5007 4.79994 10.4709 4.49834 10.5288 4.20736C10.5867 3.91639 10.7296 3.64912 10.9393 3.43934C11.1491 3.22956 11.4164 3.0867 11.7074 3.02882C11.9983 2.97094 12.2999 3.00065 12.574 3.11418C12.8481 3.22771 13.0824 3.41997 13.2472 3.66664C13.412 3.91332 13.5 4.20333 13.5 4.5C13.4996 4.89769 13.3414 5.27896 13.0602 5.56017C12.779 5.84137 12.3977 5.99955 12 6Z" fill="black"/>
<path d="M19.875 7.5C20.4683 7.5 21.0484 7.32406 21.5417 6.99441C22.0351 6.66477 22.4196 6.19623 22.6466 5.64805C22.8737 5.09988 22.9331 4.49668 22.8174 3.91473C22.7016 3.33279 22.4159 2.79824 21.9963 2.37868C21.5768 1.95912 21.0422 1.6734 20.4603 1.55765C19.8783 1.44189 19.2751 1.5013 18.727 1.72836C18.1788 1.95543 17.7102 2.33994 17.3806 2.83329C17.0509 3.32664 16.875 3.90666 16.875 4.5C16.8759 5.29538 17.1923 6.05792 17.7547 6.62034C18.3171 7.18275 19.0796 7.49911 19.875 7.5ZM19.875 3C20.1717 3 20.4617 3.08798 20.7084 3.2528C20.955 3.41762 21.1473 3.65189 21.2608 3.92598C21.3744 4.20007 21.4041 4.50167 21.3462 4.79264C21.2883 5.08361 21.1454 5.35089 20.9357 5.56066C20.7259 5.77044 20.4586 5.9133 20.1676 5.97118C19.8767 6.02906 19.5751 5.99935 19.301 5.88582C19.0269 5.77229 18.7926 5.58003 18.6278 5.33336C18.463 5.08668 18.375 4.79668 18.375 4.5C18.3754 4.10232 18.5336 3.72104 18.8148 3.43984C19.096 3.15863 19.4773 3.00045 19.875 3Z" fill="black"/>
<path d="M4.125 9C3.53166 9 2.95164 9.17595 2.45829 9.50559C1.96494 9.83524 1.58043 10.3038 1.35336 10.8519C1.1263 11.4001 1.06689 12.0033 1.18265 12.5853C1.2984 13.1672 1.58412 13.7018 2.00368 14.1213C2.42324 14.5409 2.95779 14.8266 3.53973 14.9424C4.12167 15.0581 4.72487 14.9987 5.27305 14.7716C5.82123 14.5446 6.28977 14.1601 6.61941 13.6667C6.94905 13.1734 7.125 12.5933 7.125 12C7.12411 11.2046 6.80775 10.4421 6.24533 9.87967C5.68292 9.31725 4.92038 9.00089 4.125 9ZM4.125 13.5C3.82833 13.5 3.53832 13.412 3.29165 13.2472C3.04497 13.0824 2.85271 12.8481 2.73918 12.574C2.62565 12.2999 2.59595 11.9983 2.65382 11.7074C2.7117 11.4164 2.85456 11.1491 3.06434 10.9393C3.27412 10.7296 3.54139 10.5867 3.83237 10.5288C4.12334 10.4709 4.42494 10.5006 4.69903 10.6142C4.97312 10.7277 5.20738 10.92 5.37221 11.1666C5.53703 11.4133 5.625 11.7033 5.625 12C5.62455 12.3977 5.46638 12.779 5.18517 13.0602C4.90396 13.3414 4.52269 13.4996 4.125 13.5Z" fill="black"/>
<path d="M12 9C11.4067 9 10.8266 9.17595 10.3333 9.50559C9.83994 9.83524 9.45543 10.3038 9.22836 10.8519C9.0013 11.4001 8.94189 12.0033 9.05765 12.5853C9.1734 13.1672 9.45912 13.7018 9.87868 14.1213C10.2982 14.5409 10.8328 14.8266 11.4147 14.9424C11.9967 15.0581 12.5999 14.9987 13.1481 14.7716C13.6962 14.5446 14.1648 14.1601 14.4944 13.6667C14.8241 13.1734 15 12.5933 15 12C14.9991 11.2046 14.6828 10.4421 14.1203 9.87967C13.5579 9.31725 12.7954 9.00089 12 9ZM12 13.5C11.7033 13.5 11.4133 13.412 11.1666 13.2472C10.92 13.0824 10.7277 12.8481 10.6142 12.574C10.5007 12.2999 10.4709 11.9983 10.5288 11.7074C10.5867 11.4164 10.7296 11.1491 10.9393 10.9393C11.1491 10.7296 11.4164 10.5867 11.7074 10.5288C11.9983 10.4709 12.2999 10.5006 12.574 10.6142C12.8481 10.7277 13.0824 10.92 13.2472 11.1666C13.412 11.4133 13.5 11.7033 13.5 12C13.4996 12.3977 13.3414 12.779 13.0602 13.0602C12.779 13.3414 12.3977 13.4996 12 13.5Z" fill="black"/>
<path d="M19.875 9C19.2817 9 18.7016 9.17595 18.2083 9.50559C17.7149 9.83524 17.3304 10.3038 17.1034 10.8519C16.8763 11.4001 16.8169 12.0033 16.9326 12.5853C17.0484 13.1672 17.3341 13.7018 17.7537 14.1213C18.1732 14.5409 18.7078 14.8266 19.2897 14.9424C19.8717 15.0581 20.4749 14.9987 21.0231 14.7716C21.5712 14.5446 22.0398 14.1601 22.3694 13.6667C22.6991 13.1734 22.875 12.5933 22.875 12C22.8741 11.2046 22.5578 10.4421 21.9953 9.87967C21.4329 9.31725 20.6704 9.00089 19.875 9ZM19.875 13.5C19.5783 13.5 19.2883 13.412 19.0416 13.2472C18.795 13.0824 18.6027 12.8481 18.4892 12.574C18.3757 12.2999 18.3459 11.9983 18.4038 11.7074C18.4617 11.4164 18.6046 11.1491 18.8143 10.9393C19.0241 10.7296 19.2914 10.5867 19.5824 10.5288C19.8733 10.4709 20.1749 10.5006 20.449 10.6142C20.7231 10.7277 20.9574 10.92 21.1222 11.1666C21.287 11.4133 21.375 11.7033 21.375 12C21.3746 12.3977 21.2164 12.779 20.9352 13.0602C20.654 13.3414 20.2727 13.4996 19.875 13.5Z" fill="black"/>
<path d="M4.125 16.5C3.53166 16.5 2.95164 16.6759 2.45829 17.0056C1.96494 17.3352 1.58043 17.8038 1.35336 18.352C1.1263 18.9001 1.06689 19.5033 1.18265 20.0853C1.2984 20.6672 1.58412 21.2018 2.00368 21.6213C2.42324 22.0409 2.95779 22.3266 3.53973 22.4424C4.12167 22.5581 4.72487 22.4987 5.27305 22.2716C5.82123 22.0446 6.28977 21.6601 6.61941 21.1667C6.94905 20.6734 7.125 20.0933 7.125 19.5C7.12411 18.7046 6.80775 17.9421 6.24533 17.3797C5.68292 16.8173 4.92038 16.5009 4.125 16.5ZM4.125 21C3.82833 21 3.53832 20.912 3.29165 20.7472C3.04497 20.5824 2.85271 20.3481 2.73918 20.074C2.62565 19.7999 2.59595 19.4983 2.65382 19.2074C2.7117 18.9164 2.85456 18.6491 3.06434 18.4393C3.27412 18.2296 3.54139 18.0867 3.83237 18.0288C4.12334 17.9709 4.42494 18.0006 4.69903 18.1142C4.97312 18.2277 5.20738 18.42 5.37221 18.6666C5.53703 18.9133 5.625 19.2033 5.625 19.5C5.62455 19.8977 5.46638 20.279 5.18517 20.5602C4.90396 20.8414 4.52269 20.9996 4.125 21Z" fill="black"/>
<path d="M12 16.5C11.4067 16.5 10.8266 16.6759 10.3333 17.0056C9.83994 17.3352 9.45543 17.8038 9.22836 18.352C9.0013 18.9001 8.94189 19.5033 9.05765 20.0853C9.1734 20.6672 9.45912 21.2018 9.87868 21.6213C10.2982 22.0409 10.8328 22.3266 11.4147 22.4424C11.9967 22.5581 12.5999 22.4987 13.1481 22.2716C13.6962 22.0446 14.1648 21.6601 14.4944 21.1667C14.8241 20.6734 15 20.0933 15 19.5C14.9991 18.7046 14.6828 17.9421 14.1203 17.3797C13.5579 16.8173 12.7954 16.5009 12 16.5ZM12 21C11.7033 21 11.4133 20.912 11.1666 20.7472C10.92 20.5824 10.7277 20.3481 10.6142 20.074C10.5007 19.7999 10.4709 19.4983 10.5288 19.2074C10.5867 18.9164 10.7296 18.6491 10.9393 18.4393C11.1491 18.2296 11.4164 18.0867 11.7074 18.0288C11.9983 17.9709 12.2999 18.0006 12.574 18.1142C12.8481 18.2277 13.0824 18.42 13.2472 18.6666C13.412 18.9133 13.5 19.2033 13.5 19.5C13.4996 19.8977 13.3414 20.279 13.0602 20.5602C12.779 20.8414 12.3977 20.9996 12 21Z" fill="black"/>
<path d="M19.875 16.5C19.2817 16.5 18.7016 16.6759 18.2083 17.0056C17.7149 17.3352 17.3304 17.8038 17.1034 18.352C16.8763 18.9001 16.8169 19.5033 16.9326 20.0853C17.0484 20.6672 17.3341 21.2018 17.7537 21.6213C18.1732 22.0409 18.7078 22.3266 19.2897 22.4424C19.8717 22.5581 20.4749 22.4987 21.0231 22.2716C21.5712 22.0446 22.0398 21.6601 22.3694 21.1667C22.6991 20.6734 22.875 20.0933 22.875 19.5C22.8741 18.7046 22.5578 17.9421 21.9953 17.3797C21.4329 16.8173 20.6704 16.5009 19.875 16.5ZM19.875 21C19.5783 21 19.2883 20.912 19.0416 20.7472C18.795 20.5824 18.6027 20.3481 18.4892 20.074C18.3757 19.7999 18.3459 19.4983 18.4038 19.2074C18.4617 18.9164 18.6046 18.6491 18.8143 18.4393C19.0241 18.2296 19.2914 18.0867 19.5824 18.0288C19.8733 17.9709 20.1749 18.0006 20.449 18.1142C20.7231 18.2277 20.9574 18.42 21.1222 18.6666C21.287 18.9133 21.375 19.2033 21.375 19.5C21.3746 19.8977 21.2164 20.279 20.9352 20.5602C20.654 20.8414 20.2727 20.9996 19.875 21Z" fill="black"/>
</svg>
