<svg width="24" height="24" viewBox="0 0 24 24" fill="none" xmlns="http://www.w3.org/2000/svg">
<g clip-path="url(#clip0_2673_8581)">
<path d="M12.7496 10.6708V5.69141H11.2496V10.6709L6.62665 7.8733L6.5127 8.06159V9.55761L10.551 12.0013L6.5127 14.4451V15.9411L6.62665 16.1294L11.2496 13.3318V18.3113H12.7496V13.3318L17.3726 16.1294L17.4865 15.9411V14.4451L13.4482 12.0013L17.4865 9.55756V8.06155L17.3726 7.8733L12.7496 10.6708Z" fill="black"/>
<path d="M19.9623 4.09741C17.8572 1.99726 15.0046 0.818584 12.0311 0.820314C9.05756 0.822045 6.20632 2.00404 4.10371 4.10664C2.00111 6.20925 0.819115 9.06049 0.817385 12.034C0.815654 15.0075 1.99433 17.8602 4.09448 19.9652C6.19953 22.0654 9.05215 23.244 12.0257 23.2423C14.9992 23.2406 17.8504 22.0586 19.9531 19.956C22.0557 17.8534 23.2376 15.0021 23.2394 12.0286C23.2411 9.05508 22.0624 6.20246 19.9623 4.09741ZM12.0284 21.7515C6.66862 21.7515 2.30817 17.3911 2.30817 12.0313C2.30817 6.6716 6.66862 2.3111 12.0284 2.3111C17.3881 2.3111 21.7486 6.67155 21.7486 12.0313C21.7486 17.3911 17.3881 21.7515 12.0284 21.7515Z" fill="black"/>
</g>
<defs>
<clipPath id="clip0_2673_8581">
<rect width="24" height="24" fill="white"/>
</clipPath>
</defs>
</svg>
