<svg width="64" height="64" viewBox="0 0 64 64" fill="none" xmlns="http://www.w3.org/2000/svg">
<path opacity="0.5" d="M1.86031 24.2268C2.54339 24.4986 3.46407 24.1966 3.79076 23.2601C8.48324 9.48529 19.9768 2.80934 31.5893 2.80934C37.1727 2.80934 41.4197 4.07807 44.746 6.16242C45.5479 6.67595 46.4983 6.58533 46.825 5.76971C47.2111 4.89368 46.7656 4.34994 46.1122 3.92703C42.0731 1.29894 37.4994 0 31.5893 0C18.6107 0 6.40429 7.15928 1.14752 21.9007C0.731735 23.0789 1.14752 23.9247 1.86031 24.2268ZM62.7141 34.7089C63.4862 34.7089 64.0802 34.0443 63.9911 33.1683C62.8032 21.5383 58.6453 13.4425 51.9926 7.67281C51.3096 7.06866 50.4483 7.15928 50.0028 7.67281C49.4979 8.18635 49.4682 9.06238 50.181 9.69675C56.2099 15.2852 60.3678 22.5653 61.3479 33.2287C61.4073 34.0443 61.9122 34.7089 62.7141 34.7089ZM6.70128 50.6285C7.14677 51.2931 8.09715 51.4441 8.78023 50.8399C10.8592 49.0879 11.8987 46.1577 11.869 43.3182C11.8393 39.0891 10.087 37.0953 10.087 31.7183C10.087 20.0883 19.769 10.2405 31.2329 10.2405C45.5479 10.2405 54.4577 21.931 54.5171 38.938C54.5468 45.2515 53.5667 50.115 52.3193 53.3472C51.9926 54.1628 52.3193 54.9784 52.9727 55.2805C53.6261 55.5826 54.5468 55.3409 54.8438 54.4951C56.1208 50.8702 57.2494 45.5838 57.2494 38.9078C57.2494 20.3299 47.2111 7.49157 31.2329 7.49157C18.2543 7.49157 7.35467 18.5779 7.35467 31.7183C7.35467 36.7328 9.19602 40.1161 9.22572 43.3182C9.22572 45.3421 8.42384 47.366 6.99828 48.6348C6.40429 49.1483 6.31519 50.0243 6.70128 50.6285ZM19.4423 40.388C18.6107 38.1828 17.4524 35.3735 17.4524 32.111C17.4524 23.8038 23.4517 17.7018 31.5893 17.7018C34.5295 17.7018 36.0738 18.2154 38.5092 19.5747C39.2814 19.9674 39.9941 19.7258 40.2911 19.182C40.6475 18.5477 40.5584 17.6716 39.6081 17.0977C37.4994 15.7685 34.5592 14.9227 31.5893 14.9227C21.937 14.9227 14.7201 22.2632 14.7201 32.111C14.7201 35.4037 15.6111 38.4849 16.799 41.4453C17.1554 42.2911 17.8979 42.6536 18.7295 42.3213C19.4423 42.0192 19.7393 41.2036 19.4423 40.388ZM42.9641 23.5018C45.8152 27.7309 47.2111 33.8027 47.2111 40.6901C47.2111 48.0306 45.2509 55.0993 41.9543 59.4794C41.5088 60.0836 41.4197 60.9596 41.9543 61.5033C42.5186 62.0773 43.5581 62.0773 44.0629 61.4127C47.716 56.368 49.9137 48.6046 49.9137 40.5995C49.9137 32.2923 48.1317 26.4621 45.3994 22.0518C44.8648 21.1758 44.0035 20.9945 43.3502 21.357C42.6374 21.7497 42.4295 22.6559 42.9641 23.5018ZM19.3829 60.0232C24.105 56.1565 26.7186 49.9941 26.6889 43.1067C26.6295 37.9412 24.8178 34.7089 24.8178 31.7485C24.8178 27.8215 27.5502 25.1934 31.4408 25.1934C37.2618 25.1934 39.5487 31.5069 39.6675 40.2974C39.8456 49.7827 36.4896 57.5461 32.0941 61.5638C31.5299 62.0773 31.4111 62.8325 31.8268 63.4367C32.2723 64.071 33.2227 64.2221 33.8761 63.6179C38.5686 59.268 42.281 50.115 42.2513 40.1161C42.2216 29.6944 39.1626 22.4445 31.4408 22.4445C26.1543 22.4445 22.1449 26.0694 22.1449 31.5371C22.1449 34.7995 23.8972 38.9078 23.9565 43.1067C23.9862 49.1483 21.7291 54.4649 17.69 57.818C16.9772 58.3919 16.9178 59.2075 17.3336 59.8117C17.8088 60.5065 18.6998 60.6273 19.3829 60.0232ZM2.95918 41.8984C3.67196 41.6567 4.05805 40.9317 3.82046 40.0255C3.04828 37.0953 2.69189 33.41 2.78098 29.3621C2.78098 28.4861 2.3058 27.9725 1.56331 27.9423C0.612938 27.8819 0.108051 28.4861 0.0486521 29.2413C-0.129543 32.7152 0.167449 37.0349 1.17722 40.8109C1.44452 41.7172 2.2167 42.1099 2.95918 41.8984ZM34.2325 46.2181C35.0938 42.3515 34.7077 36.9141 33.193 32.6548C32.8366 31.6579 32.1238 31.3558 31.3517 31.5975C30.6389 31.8392 30.2231 32.5641 30.4904 33.41C31.9753 37.5485 32.302 42.2307 31.5299 45.8556C31.3814 46.6108 31.6784 47.3056 32.5099 47.4567C33.3118 47.6077 34.0246 47.1244 34.2325 46.2181ZM13.2351 56.0961C15.4032 54.9482 18.4028 51.0816 19.175 47.9098C19.3829 47.1546 18.9968 46.3692 18.2543 46.1275C17.5712 45.9161 16.8584 46.3088 16.5911 47.1244C15.7893 50.0243 14.1261 52.1087 11.9878 53.5889C11.0968 54.2232 11.0077 55.0388 11.3047 55.6128C11.6017 56.217 12.3738 56.5492 13.2351 56.0961ZM26.1246 62.4398C28.4708 60.6877 31.1735 57.1534 32.5693 52.8639C32.7475 52.1993 32.599 51.3233 31.8268 51.0816C31.0547 50.8097 30.3122 51.1722 30.0746 51.867C28.4708 56.1565 26.5107 58.6336 24.4614 60.2044C23.8378 60.6877 23.6596 61.5336 24.0753 62.1679C24.4911 62.8929 25.4118 62.9835 26.1246 62.4398Z" fill="#FF2D55"/>
</svg>
